# Blender v2.90.1 OBJ File: ''
# www.blender.org
mtllib Crate1.mtl
o Cube_Cube.002
v -1.000000 -1.000000 1.000000
v -0.843291 0.640360 0.843291
v -1.000000 -1.000000 -1.000000
v -0.843291 0.640360 -0.843291
v 1.000000 -1.000000 1.000000
v 0.843291 0.640360 0.843291
v 1.000000 -1.000000 -1.000000
v 0.843291 0.640360 -0.843291
v -1.000000 0.640360 1.000000
v -1.000000 0.640360 -1.000000
v 1.000000 0.640360 -1.000000
v 1.000000 0.640360 1.000000
v -0.665114 0.301526 0.665114
v -0.665114 0.301526 -0.665114
v 0.665114 0.301526 -0.665114
v 0.665114 0.301526 0.665114
v -0.989179 0.545173 0.989179
v -0.989179 0.545173 -0.989179
v 0.989179 0.545173 -0.989179
v 0.989179 0.545173 0.989179
v -1.000000 0.452131 -1.000000
v 1.000000 0.452131 -1.000000
v 1.000000 0.452131 1.000000
v -1.000000 0.452131 1.000000
v -1.000000 -0.886532 0.886532
v -1.000000 0.338663 0.886532
v -1.000000 0.338663 -0.886532
v -1.000000 -0.886532 -0.886532
v -0.886532 -0.886532 -1.000000
v -0.886532 0.338663 -1.000000
v 0.886532 0.338663 -1.000000
v 0.886532 -0.886532 -1.000000
v 1.000000 -0.886532 -0.886532
v 1.000000 0.338663 -0.886532
v 1.000000 0.338663 0.886532
v 1.000000 -0.886532 0.886532
v 0.886532 -0.886532 1.000000
v 0.886532 0.338663 1.000000
v -0.886532 0.338663 1.000000
v -0.886532 -0.886532 1.000000
v -0.960716 -0.862467 0.851705
v -0.960716 0.314598 0.851705
v -0.960716 -0.862467 -0.851705
v -0.960716 0.314598 -0.851705
v -0.851705 0.314598 -0.960716
v -0.851705 -0.862467 -0.960716
v 0.851705 -0.862467 -0.960716
v 0.851705 0.314598 -0.960716
v 0.960716 0.314598 -0.851705
v 0.960716 -0.862467 -0.851705
v 0.960716 -0.862467 0.851705
v 0.960716 0.314598 0.851705
v 0.851705 0.314598 0.960716
v 0.851705 -0.862467 0.960716
v -0.851705 -0.862467 0.960716
v -0.851705 0.314598 0.960716
v -0.897123 -0.819184 0.291162
v -0.897123 -0.728365 0.291162
v -0.897123 -0.728365 -0.291162
v -0.897123 -0.819184 -0.291162
v -0.291162 -0.819184 -0.897123
v -0.291162 -0.728365 -0.897123
v 0.291162 -0.728365 -0.897123
v 0.291162 -0.819184 -0.897123
v 0.897123 -0.819184 -0.291162
v 0.897123 -0.728365 -0.291162
v 0.897123 -0.728365 0.291162
v 0.897123 -0.819184 0.291162
v 0.291162 -0.819184 0.897123
v 0.291162 -0.728365 0.897123
v -0.291162 -0.728365 0.897123
v -0.291162 -0.819184 0.897123
vt 0.610493 0.000000
vt 0.625000 0.000000
vt 0.625000 0.250000
vt 0.610493 0.250000
vt 0.625000 0.500000
vt 0.610493 0.500000
vt 0.625000 0.750000
vt 0.610493 0.750000
vt 0.625000 1.000000
vt 0.610493 1.000000
vt 0.125000 0.500000
vt 0.375000 0.500000
vt 0.375000 0.750000
vt 0.125000 0.750000
vt 0.644589 0.730411
vt 0.644589 0.519589
vt 0.644589 0.519589
vt 0.644589 0.730411
vt 0.855411 0.730411
vt 0.855411 0.519589
vt 0.875000 0.500000
vt 0.875000 0.750000
vt 0.855411 0.519589
vt 0.855411 0.730411
vt 0.596313 0.750000
vt 0.596313 1.000000
vt 0.596313 0.500000
vt 0.596313 0.250000
vt 0.596313 0.000000
vt 0.579020 0.514184
vt 0.579020 0.735816
vt 0.579020 0.735816
vt 0.579020 0.514184
vt 0.579020 0.235816
vt 0.392293 0.235817
vt 0.392293 0.235817
vt 0.579020 0.235816
vt 0.392293 0.985817
vt 0.392293 0.764184
vt 0.392293 0.764184
vt 0.392293 0.985817
vt 0.579020 0.264184
vt 0.579020 0.485816
vt 0.579020 0.485816
vt 0.579020 0.264184
vt 0.375000 0.000000
vt 0.579020 0.014184
vt 0.392293 0.014184
vt 0.375000 0.250000
vt 0.392293 0.264184
vt 0.392293 0.485817
vt 0.392293 0.514184
vt 0.392293 0.735816
vt 0.579020 0.764184
vt 0.579020 0.985816
vt 0.375000 1.000000
vt 0.477942 0.084431
vt 0.493371 0.084431
vt 0.493371 0.165569
vt 0.477942 0.165569
vt 0.477942 0.334431
vt 0.493371 0.334431
vt 0.493371 0.415569
vt 0.477942 0.415569
vt 0.477942 0.584431
vt 0.493371 0.584431
vt 0.493371 0.665569
vt 0.477942 0.665569
vt 0.477942 0.834431
vt 0.493371 0.834431
vt 0.493371 0.915569
vt 0.477942 0.915569
vt 0.392293 0.485817
vt 0.579020 0.985816
vt 0.579020 0.764184
vt 0.392293 0.735816
vt 0.579020 0.014184
vt 0.392293 0.014184
vt 0.392293 0.264184
vt 0.392293 0.514184
vn -0.9936 -0.1130 0.0000
vn 0.0000 -0.1130 -0.9936
vn 0.9936 -0.1130 0.0000
vn 0.0000 -0.1130 0.9936
vn 0.0000 -1.0000 0.0000
vn -0.8851 0.4654 0.0000
vn 0.0000 1.0000 0.0000
vn 0.8851 0.4654 0.0000
vn 0.0000 0.4654 -0.8851
vn 0.0000 0.4654 0.8851
vn 0.0000 0.1155 0.9933
vn 0.9933 0.1155 0.0000
vn 0.0000 0.1155 -0.9933
vn -0.9933 0.1155 -0.0000
vn 0.5224 -0.8527 0.0000
vn -0.6634 0.0000 0.7483
vn 0.0000 0.8527 0.5224
vn 0.0000 -0.8527 -0.5224
vn -1.0000 0.0000 0.0000
vn 0.0000 0.0000 -1.0000
vn 1.0000 0.0000 0.0000
vn 0.0000 0.0000 1.0000
vn -0.7483 0.0000 -0.6634
vn -0.0000 -0.8527 0.5224
vn 0.6634 0.0000 -0.7483
vn 0.7483 0.0000 0.6634
vn -0.6634 0.0000 -0.7483
vn 0.7483 0.0000 -0.6634
vn -0.5224 0.8527 0.0000
vn 0.6634 0.0000 0.7483
vn 0.0000 0.8527 -0.5224
vn -0.7483 0.0000 0.6634
vn -0.5224 -0.8527 0.0000
vn 0.5224 0.8527 0.0000
vn -0.9936 0.0000 -0.1127
vn -0.9981 -0.0609 0.0000
vn -0.9936 0.0000 0.1127
vn -0.5627 0.8267 0.0000
vn 0.1127 0.0000 -0.9936
vn 0.0000 -0.0609 -0.9981
vn -0.1127 0.0000 -0.9936
vn 0.0000 0.8267 -0.5627
vn 0.9936 0.0000 0.1127
vn 0.9981 -0.0609 0.0000
vn 0.9936 0.0000 -0.1127
vn 0.5627 0.8267 0.0000
vn -0.1127 0.0000 0.9936
vn 0.0000 -0.0609 0.9981
vn 0.1127 0.0000 0.9936
vn 0.0000 0.8267 0.5627
usemtl None
s off
f 17/1/1 9/2/1 10/3/1 18/4/1
f 18/4/2 10/3/2 11/5/2 19/6/2
f 19/6/3 11/5/3 12/7/3 20/8/3
f 20/8/4 12/7/4 9/9/4 17/10/4
f 3/11/5 7/12/5 5/13/5 1/14/5
f 6/15/6 8/16/6 15/17/6 16/18/6
f 2/19/7 4/20/7 10/21/7 9/22/7
f 4/20/7 8/16/7 11/5/7 10/21/7
f 8/16/7 6/15/7 12/7/7 11/5/7
f 6/15/7 2/19/7 9/22/7 12/7/7
f 15/17/7 14/23/7 13/24/7 16/18/7
f 4/20/8 2/19/8 13/24/8 14/23/8
f 2/19/9 6/15/9 16/18/9 13/24/9
f 8/16/10 4/20/10 14/23/10 15/17/10
f 23/25/11 20/8/11 17/10/11 24/26/11
f 22/27/12 19/6/12 20/8/12 23/25/12
f 21/28/13 18/4/13 19/6/13 22/27/13
f 24/29/14 17/1/14 18/4/14 21/28/14
f 34/30/15 35/31/15 52/32/15 49/33/15
f 27/34/16 28/35/16 43/36/16 44/37/16
f 40/38/17 37/39/17 54/40/17 55/41/17
f 30/42/18 31/43/18 48/44/18 45/45/18
f 1/46/19 24/29/19 26/47/19 25/48/19
f 24/29/19 21/28/19 27/34/19 26/47/19
f 21/28/19 3/49/19 28/35/19 27/34/19
f 3/49/19 1/46/19 25/48/19 28/35/19
f 3/49/20 21/28/20 30/42/20 29/50/20
f 21/28/20 22/27/20 31/43/20 30/42/20
f 22/27/20 7/12/20 32/51/20 31/43/20
f 7/12/20 3/49/20 29/50/20 32/51/20
f 7/12/21 22/27/21 34/30/21 33/52/21
f 22/27/21 23/25/21 35/31/21 34/30/21
f 23/25/21 5/13/21 36/53/21 35/31/21
f 5/13/21 7/12/21 33/52/21 36/53/21
f 5/13/22 23/25/22 38/54/22 37/39/22
f 23/25/22 24/26/22 39/55/22 38/54/22
f 24/26/22 1/56/22 40/38/22 39/55/22
f 1/56/22 5/13/22 37/39/22 40/38/22
f 57/57/19 58/58/19 59/59/19 60/60/19
f 61/61/20 62/62/20 63/63/20 64/64/20
f 65/65/21 66/66/21 67/67/21 68/68/21
f 69/69/22 70/70/22 71/71/22 72/72/22
f 31/43/23 32/51/23 47/73/23 48/44/23
f 38/54/24 39/55/24 56/74/24 53/75/24
f 35/31/25 36/53/25 51/76/25 52/32/25
f 39/55/26 40/38/26 55/41/26 56/74/26
f 25/48/27 26/47/27 42/77/27 41/78/27
f 29/50/28 30/42/28 45/45/28 46/79/28
f 28/35/29 25/48/29 41/78/29 43/36/29
f 33/52/30 34/30/30 49/33/30 50/80/30
f 32/51/31 29/50/31 46/79/31 47/73/31
f 37/39/32 38/54/32 53/75/32 54/40/32
f 26/47/33 27/34/33 44/37/33 42/77/33
f 36/53/34 33/52/34 50/80/34 51/76/34
f 41/78/35 42/77/35 58/58/35 57/57/35
f 42/77/36 44/37/36 59/59/36 58/58/36
f 44/37/37 43/36/37 60/60/37 59/59/37
f 43/36/38 41/78/38 57/57/38 60/60/38
f 46/79/39 45/45/39 62/62/39 61/61/39
f 45/45/40 48/44/40 63/63/40 62/62/40
f 48/44/41 47/73/41 64/64/41 63/63/41
f 47/73/42 46/79/42 61/61/42 64/64/42
f 50/80/43 49/33/43 66/66/43 65/65/43
f 49/33/44 52/32/44 67/67/44 66/66/44
f 52/32/45 51/76/45 68/68/45 67/67/45
f 51/76/46 50/80/46 65/65/46 68/68/46
f 54/40/47 53/75/47 70/70/47 69/69/47
f 53/75/48 56/74/48 71/71/48 70/70/48
f 56/74/49 55/41/49 72/72/49 71/71/49
f 55/41/50 54/40/50 69/69/50 72/72/50
