# Blender v2.90.1 OBJ File: 'LostCell.blend'
# www.blender.org
mtllib LostCell.mtl
o Cube
v 1.455810 0.226313 -0.088491
v 1.447788 -0.040040 -0.910734
v 1.455810 0.226313 0.088491
v 1.447788 -0.040040 0.910734
v -1.424417 0.226313 -0.851039
v -1.447788 -0.040040 -0.910734
v -1.424417 0.226313 0.851039
v -1.447788 -0.040040 0.910734
v 1.524720 0.226313 0.095494
v -1.556113 0.226313 0.978876
v 1.524720 0.226313 -0.095494
v -1.556113 0.226313 -0.978876
v 1.424417 0.192139 0.851039
v -1.424417 0.192139 0.851039
v 1.424417 0.192139 -0.851039
v -1.424417 0.192139 -0.851039
v -1.527597 -0.018204 0.960938
v 1.527597 -0.018204 0.960938
v -1.583712 0.202759 0.996237
v 1.583712 0.202759 0.996237
v 1.556113 0.226313 -0.978876
v 1.556113 0.226313 0.978876
v 1.424417 0.226313 -0.851039
v 1.424417 0.226313 0.851039
v 1.524720 0.218510 -0.095494
v 1.524720 0.218510 0.095494
v 1.455810 0.218510 -0.088491
v 1.455810 0.218510 0.088491
v -1.447788 -0.040040 -0.303578
v -1.447788 -0.040040 0.303578
v 1.556113 0.226313 -0.326292
v 1.556113 0.226313 0.326292
v -1.556113 0.226313 0.326292
v -1.556113 0.226313 -0.326292
v 1.447788 -0.040040 0.303578
v 1.447788 -0.040040 -0.303578
v 1.424417 0.226313 -0.283680
v 1.424417 0.226313 0.283680
v -1.424417 0.226313 0.283680
v -1.424417 0.226313 -0.283680
v 1.424417 0.192139 -0.283680
v 1.424417 0.192139 0.283680
v -1.424417 0.192139 0.283680
v -1.424417 0.192139 -0.283680
v 1.527597 -0.018204 -0.320313
v 1.527597 -0.018204 0.320313
v -1.527597 -0.018204 0.320313
v -1.527597 -0.018204 -0.320313
v 1.583712 0.202759 -0.332079
v 1.583712 0.202759 0.332079
v -1.583712 0.202759 0.332079
v -1.583712 0.202759 -0.332079
v 1.524720 0.226313 -0.031831
v 1.524720 0.226313 0.031831
v 1.455810 0.226313 -0.029497
v 1.455810 0.226313 0.029497
v 1.524720 0.218510 -0.031831
v 1.524720 0.218510 0.031831
v 1.455810 0.218510 -0.029497
v 1.455810 0.218510 0.029497
v -1.580217 0.229814 0.326292
v -1.580217 0.229814 -0.326292
v -1.448521 0.229814 0.283680
v -1.448521 0.229814 -0.283680
v -1.551701 -0.014703 0.320313
v -1.551701 -0.014703 -0.320313
v -1.607816 0.206260 0.332079
v -1.607816 0.206260 -0.332079
v 1.581203 0.226313 -0.326292
v 1.581203 0.226313 0.326292
v 1.552687 -0.018204 -0.320313
v 1.552687 -0.018204 0.320313
v 1.608802 0.202759 -0.332079
v 1.608802 0.202759 0.332079
v 1.583712 0.202759 -0.996237
v 1.527597 -0.018204 -0.960938
v -1.583712 0.202759 -0.996237
v -1.527597 -0.018204 -0.960938
vt 0.643620 0.518620
vt 0.856380 0.518620
vt 0.856380 0.518620
vt 0.643620 0.518620
vt 0.602892 0.750000
vt 0.625000 0.750000
vt 0.625000 1.000000
vt 0.602892 1.000000
vt 0.602892 0.166667
vt 0.625000 0.166667
vt 0.625000 0.250000
vt 0.602892 0.250000
vt 0.125000 0.666667
vt 0.375000 0.666667
vt 0.375000 0.750000
vt 0.125000 0.750000
vt 0.602892 0.666667
vt 0.625000 0.666667
vt 0.625000 0.500000
vt 0.602892 0.500000
vt 0.643620 0.731380
vt 0.856380 0.731380
vt 0.875000 0.750000
vt 0.639182 0.731204
vt 0.629439 0.740930
vt 0.629439 0.740930
vt 0.639182 0.731204
vt 0.856380 0.589540
vt 0.875000 0.500000
vt 0.875000 0.583333
vt 0.643620 0.660460
vt 0.856380 0.660460
vt 0.856380 0.731380
vt 0.643620 0.731380
vt 0.643620 0.589540
vt 0.643620 0.589540
vt 0.856380 0.660460
vt 0.375000 0.250000
vt 0.395495 0.250000
vt 0.395495 0.500000
vt 0.375000 0.500000
vt 0.395496 0.666667
vt 0.395496 0.750000
vt 0.375000 0.166667
vt 0.395496 0.166667
vt 0.395495 1.000000
vt 0.375000 1.000000
vt 0.629439 0.663643
vt 0.639181 0.589599
vt 0.639182 0.518796
vt 0.629439 0.509070
vt 0.639181 0.660401
vt 0.629439 0.663643
vt 0.629439 0.586357
vt 0.629439 0.509070
vt 0.629439 0.586357
vt 0.639182 0.518796
vt 0.639181 0.660401
vt 0.639181 0.589599
vt 0.643620 0.660460
vt 0.625000 0.583333
vt 0.395495 0.000000
vt 0.602892 0.000000
vt 0.602892 0.083333
vt 0.395495 0.083333
vt 0.602892 0.083333
vt 0.395495 0.083333
vt 0.602892 0.583333
vt 0.395495 0.583333
vt 0.602892 0.583333
vt 0.395495 0.583333
vt 0.375000 0.000000
vt 0.375000 0.083333
vt 0.375000 0.583333
vt 0.856380 0.589540
vt 0.875000 0.666667
vt 0.856380 0.589540
vt 0.856380 0.660460
vt 0.602892 0.666667
vt 0.625000 0.666667
vt 0.125000 0.500000
vt 0.125000 0.583333
vt 0.625000 0.000000
vt 0.625000 0.083333
vt 0.875000 0.583333
vt 0.602892 0.166667
vt 0.395496 0.166667
vt 0.875000 0.666667
vt 0.625000 0.083333
vt 0.625000 0.166667
vt 0.395496 0.666667
vt 0.625000 0.583333
vn 0.0000 0.0000 1.0000
vn 0.0000 0.5933 0.8050
vn -0.6492 0.7606 0.0000
vn 0.0000 -1.0000 0.0000
vn 0.6492 0.7606 0.0000
vn 0.0000 0.5933 -0.8050
vn 0.0000 1.0000 0.0000
vn 0.1011 0.0000 -0.9949
vn -1.0000 0.0000 0.0000
vn 1.0000 0.0000 0.0000
vn 0.0000 0.0000 -1.0000
vn 0.0000 -0.9170 -0.3989
vn 0.2639 -0.9645 0.0000
vn -0.2639 -0.9645 0.0000
vn 0.0000 -0.9170 0.3989
vn 0.0000 -0.1578 -0.9875
vn 0.9692 -0.2461 0.0000
vn -0.9692 -0.2461 0.0000
vn 0.0000 -0.1578 0.9875
vn 0.1011 0.0000 0.9949
vn -0.0080 -0.0552 0.9984
vn 0.0000 -0.0532 -0.9986
vn 0.1437 0.9896 0.0000
vn 0.0000 0.2386 0.9711
vn 0.1314 0.9044 -0.4060
vn 0.0298 0.2054 0.9782
vn 0.1314 0.9044 0.4060
vn -0.0080 -0.0552 -0.9984
vn 0.0298 0.2054 -0.9782
vn -0.1437 -0.9896 0.0000
vn 0.0000 0.2386 -0.9711
vn 0.0000 -0.0532 0.9986
usemtl Material
s off
f 23/1/1 5/2/1 16/3/1 15/4/1
f 20/5/2 22/6/2 10/7/2 19/8/2
f 52/9/3 34/10/3 12/11/3 77/12/3
f 30/13/4 35/14/4 4/15/4 8/16/4
f 50/17/5 32/18/5 22/6/5 20/5/5
f 77/12/6 12/11/6 21/19/6 75/20/6
f 24/21/7 7/22/7 10/23/7 22/6/7
f 3/24/8 9/25/8 26/26/8 28/27/8
f 40/28/7 5/2/7 12/29/7 34/30/7
f 5/2/7 23/1/7 21/19/7 12/29/7
f 42/31/7 43/32/7 14/33/7 13/34/7
f 37/35/9 23/1/9 15/4/9 41/36/9
f 39/37/10 7/22/10 14/33/10 43/32/10
f 7/22/11 24/21/11 13/34/11 14/33/11
f 6/38/12 78/39/12 76/40/12 2/41/12
f 35/14/13 46/42/13 18/43/13 4/15/13
f 29/44/14 48/45/14 78/39/14 6/38/14
f 4/15/15 18/43/15 17/46/15 8/47/15
f 75/20/16 76/40/16 78/39/16 77/12/16
f 46/42/17 50/17/17 20/5/17 18/43/17
f 48/45/18 52/9/18 77/12/18 78/39/18
f 18/43/19 20/5/19 19/8/19 17/46/19
f 54/48/7 9/25/7 22/6/7 32/18/7
f 55/49/7 1/50/7 23/1/7 37/35/7
f 9/25/7 3/24/7 24/21/7 22/6/7
f 1/50/7 11/51/7 21/19/7 23/1/7
f 60/52/7 28/27/7 26/26/7 58/53/7
f 53/54/9 11/51/9 25/55/9 57/56/9
f 11/51/20 1/50/20 27/57/20 25/55/20
f 56/58/10 3/24/10 28/27/10 60/52/10
f 1/50/10 55/49/10 59/59/10 27/57/10
f 55/49/10 56/58/10 60/52/10 59/59/10
f 9/25/9 54/48/9 58/53/9 26/26/9
f 54/48/9 53/54/9 57/56/9 58/53/9
f 27/57/7 59/59/7 57/56/7 25/55/7
f 59/59/7 60/52/7 58/53/7 57/56/7
f 3/24/7 56/58/7 38/60/7 24/21/7
f 56/58/7 55/49/7 37/35/7 38/60/7
f 11/51/7 53/54/7 31/61/7 21/19/7
f 53/54/7 54/48/7 32/18/7 31/61/7
f 17/62/18 19/63/18 51/64/18 47/65/18
f 47/65/21 51/64/21 67/66/21 65/67/21
f 76/40/17 75/20/17 49/68/17 45/69/17
f 45/69/22 49/68/22 73/70/22 71/71/22
f 8/72/14 17/62/14 47/65/14 30/73/14
f 30/73/14 47/65/14 48/45/14 29/44/14
f 2/41/13 76/40/13 45/69/13 36/74/13
f 36/74/13 45/69/13 46/42/13 35/14/13
f 5/2/10 40/28/10 44/75/10 16/3/10
f 40/28/10 39/37/10 43/32/10 44/75/10
f 24/21/9 38/60/9 42/31/9 13/34/9
f 38/60/9 37/35/9 41/36/9 42/31/9
f 15/4/7 16/3/7 44/75/7 41/36/7
f 41/36/7 44/75/7 43/32/7 42/31/7
f 7/22/7 39/37/7 33/76/7 10/23/7
f 39/37/23 40/28/23 64/77/23 63/78/23
f 75/20/5 21/19/5 31/61/5 49/68/5
f 32/18/24 50/17/24 74/79/24 70/80/24
f 6/81/4 2/41/4 36/74/4 29/82/4
f 29/82/4 36/74/4 35/14/4 30/13/4
f 19/63/3 10/83/3 33/84/3 51/64/3
f 40/28/25 34/30/25 62/85/25 64/77/25
f 65/67/18 67/66/18 68/86/18 66/87/18
f 63/78/7 64/77/7 62/85/7 61/88/7
f 67/66/3 61/89/3 62/90/3 68/86/3
f 51/64/26 33/84/26 61/89/26 67/66/26
f 33/76/27 39/37/27 63/78/27 61/88/27
f 52/9/28 48/45/28 66/87/28 68/86/28
f 34/10/29 52/9/29 68/86/29 62/90/29
f 48/45/30 47/65/30 65/67/30 66/87/30
f 71/71/17 73/70/17 74/79/17 72/91/17
f 73/70/5 69/92/5 70/80/5 74/79/5
f 49/68/31 31/61/31 69/92/31 73/70/31
f 31/61/7 32/18/7 70/80/7 69/92/7
f 50/17/32 46/42/32 72/91/32 74/79/32
f 46/42/4 45/69/4 71/71/4 72/91/4
