# Blender v2.90.1 OBJ File: 'Stapler.blend'
# www.blender.org
mtllib Stapler.mtl
o Cube_Cube.001
v -0.489252 -0.081554 0.973626
v -0.503612 0.081554 1.000437
v -0.489252 -0.081554 -0.970248
v -0.376202 0.082524 -0.986019
v 0.489252 -0.081554 0.973626
v 0.503612 0.081554 1.000437
v 0.489252 -0.081554 -0.970248
v 0.376202 0.082524 -0.986019
v -0.489252 -0.081554 -0.205274
v -0.489252 -0.081554 0.442685
v -0.503612 0.081554 0.453911
v -0.293204 0.081554 -0.437825
v 0.489252 -0.081554 0.442685
v 0.489252 -0.081554 -0.205274
v 0.293204 0.081554 -0.437825
v 0.503612 0.081554 0.453911
v -0.503612 0.081554 -0.213065
v -0.503612 0.081554 -1.000493
v 0.503612 0.081554 -1.000493
v 0.503612 0.081554 -0.213065
v -0.193470 0.222003 0.429868
v -0.376202 0.192374 -0.943155
v 0.376202 0.192374 -0.943155
v 0.193470 0.222003 0.429868
v -0.239649 0.233926 0.802813
v -0.386643 0.227344 -0.939285
v 0.386643 0.227344 -0.939285
v 0.239649 0.233926 0.802813
v -0.344079 0.595418 0.855921
v -0.370129 0.615127 -0.900110
v 0.370129 0.615127 -0.900110
v 0.344079 0.595418 0.855921
v -0.379779 0.180569 -0.991817
v 0.379779 0.180569 -0.991817
v -0.379779 0.219841 -0.987797
v 0.379779 0.219841 -0.987797
v -0.379779 0.233854 -0.962803
v 0.379779 0.233854 -0.962803
v -0.293204 0.207998 -0.437825
v 0.293204 0.207998 -0.437825
v -0.359431 0.247932 0.895096
v 0.359431 0.247932 0.895096
v -0.193470 0.162464 0.429779
v 0.193470 0.162464 0.429779
v -0.239649 0.159421 0.802902
v 0.239649 0.159421 0.802902
v 0.386643 0.569726 -0.939285
v 0.359431 0.554000 0.895096
v -0.359431 0.554000 0.895096
v -0.386643 0.569726 -0.939285
v -0.503378 -0.052743 1.000000
v -0.503378 0.052743 1.000000
v -0.503378 0.052743 -1.000000
v -0.503378 -0.052743 -1.000000
v 0.503378 0.052743 -1.000000
v 0.503378 -0.052743 -1.000000
v 0.503378 0.052743 1.000000
v 0.503378 -0.052743 1.000000
v 0.503378 0.052743 -0.212938
v 0.503378 -0.052743 -0.212938
v 0.503378 0.052743 0.453728
v 0.503378 -0.052743 0.453728
v -0.503378 0.052743 0.453728
v -0.503378 -0.052743 0.453728
v -0.503378 0.052743 -0.212938
v -0.503378 -0.052743 -0.212938
vt 0.541667 0.151617
vt 0.625000 0.151617
vt 0.625000 0.250000
vt 0.541667 0.250000
vt 0.625000 0.500000
vt 0.541667 0.500000
vt 0.541667 0.681716
vt 0.625000 0.681716
vt 0.625000 0.750000
vt 0.541667 0.750000
vt 0.625000 1.000000
vt 0.541667 1.000000
vt 0.125000 0.681716
vt 0.375000 0.681716
vt 0.375000 0.750000
vt 0.125000 0.750000
vt 0.875000 0.681716
vt 0.875000 0.750000
vt 0.639596 0.583787
vt 0.639596 0.514596
vt 0.639596 0.514596
vt 0.639596 0.583787
vt 0.625000 0.598383
vt 0.875000 0.598383
vt 0.125000 0.500000
vt 0.375000 0.500000
vt 0.375000 0.598383
vt 0.125000 0.598383
vt 0.541667 0.598383
vt 0.541667 0.000000
vt 0.625000 0.000000
vt 0.625000 0.068284
vt 0.541667 0.068284
vt 0.860404 0.583787
vt 0.860404 0.514596
vt 0.875000 0.500000
vt 0.705027 0.583787
vt 0.700041 0.583787
vt 0.700041 0.583787
vt 0.705027 0.583787
vt 0.860404 0.583787
vt 0.860404 0.514596
vt 0.639596 0.514596
vt 0.639596 0.514596
vt 0.639596 0.514596
vt 0.639596 0.583787
vt 0.639596 0.514596
vt 0.639596 0.514596
vt 0.639596 0.583787
vt 0.860404 0.514596
vt 0.860404 0.514596
vt 0.860404 0.514596
vt 0.639596 0.583787
vt 0.860404 0.583787
vt 0.860404 0.514596
vt 0.860404 0.583787
vt 0.860404 0.514596
vt 0.860404 0.583787
vt 0.639596 0.514596
vt 0.860404 0.514596
vt 0.794973 0.583787
vt 0.799959 0.583787
vt 0.794973 0.583787
vt 0.799959 0.583787
vt 0.375000 0.068284
vt 0.458333 0.068284
vt 0.458333 0.151617
vt 0.375000 0.151617
vt 0.375000 0.000000
vt 0.458333 0.000000
vt 0.458333 0.598383
vt 0.458333 0.681716
vt 0.458333 0.500000
vt 0.458333 0.750000
vt 0.458333 1.000000
vt 0.375000 1.000000
vt 0.375000 0.250000
vt 0.458333 0.250000
vn -1.0000 -0.0081 0.0000
vn 0.0000 -0.0171 -0.9999
vn 1.0000 -0.0081 0.0000
vn 0.0000 -0.0152 0.9999
vn 0.0000 -1.0000 0.0000
vn 0.0000 1.0000 0.0000
vn 0.9874 -0.0283 0.1560
vn -0.0023 1.0000 0.0009
vn 0.0000 0.9978 -0.0669
vn 0.0023 1.0000 0.0009
vn 0.9924 0.0000 -0.1229
vn -0.9874 -0.0283 0.1560
vn 0.0000 0.0000 1.0000
vn 0.9831 -0.1404 -0.1174
vn 0.9386 0.3445 0.0173
vn -0.9831 -0.1404 -0.1174
vn 0.3617 -0.9317 0.0315
vn -0.3617 -0.9317 0.0315
vn 0.0000 0.9999 0.0112
vn -0.9386 0.3445 0.0173
vn 0.0000 0.6872 0.7265
vn 0.0000 0.6533 -0.7571
vn 0.0000 0.1018 -0.9948
vn 0.0000 0.8723 -0.4890
vn 0.0000 -0.0590 -0.9983
vn 0.9965 -0.0249 0.0793
vn 0.0000 0.9638 0.2668
vn -0.9965 -0.0249 0.0793
vn 0.0000 -0.9999 0.0161
vn 0.0000 -0.9887 0.1501
vn 0.0868 -0.9959 0.0246
vn -0.0868 -0.9959 0.0246
vn 0.0000 -1.0000 -0.0082
vn 0.0000 0.0015 -1.0000
vn -0.9924 0.0000 -0.1229
vn 0.0000 0.0012 1.0000
vn 0.0000 0.0000 -1.0000
vn -0.9999 0.0000 0.0148
vn 0.9999 0.0000 0.0148
vn -0.8979 -0.4402 0.0000
vn -1.0000 0.0000 0.0000
vn 0.8979 -0.4402 0.0000
vn 1.0000 0.0000 0.0000
vn 0.0000 -0.6752 0.7376
vn 0.0000 -0.7184 -0.6957
usemtl None
s off
f 65/1/1 17/2/1 18/3/1 53/4/1
f 53/4/2 18/3/2 19/5/2 55/6/2
f 61/7/3 16/8/3 6/9/3 57/10/3
f 57/10/4 6/9/4 2/11/4 52/12/4
f 10/13/5 13/14/5 5/15/5 1/16/5
f 16/8/6 11/17/6 2/18/6 6/9/6
f 15/19/7 8/20/7 23/21/7 40/22/7
f 20/23/6 17/24/6 11/17/6 16/8/6
f 3/25/5 7/26/5 14/27/5 9/28/5
f 9/28/5 14/27/5 13/14/5 10/13/5
f 55/6/3 19/5/3 20/23/3 59/29/3
f 59/29/3 20/23/3 16/8/3 61/7/3
f 52/30/1 2/31/1 11/32/1 63/33/1
f 63/33/1 11/32/1 17/2/1 65/1/1
f 12/34/8 4/35/8 18/36/8 17/24/8
f 4/35/9 8/20/9 19/5/9 18/36/9
f 8/20/10 15/19/10 20/23/10 19/5/10
f 15/19/6 12/34/6 17/24/6 20/23/6
f 24/37/11 28/38/11 46/39/11 44/40/11
f 4/35/12 12/34/12 39/41/12 22/42/12
f 12/34/13 15/19/13 40/22/13 39/41/13
f 27/43/14 23/21/14 36/44/14 38/45/14
f 48/46/15 47/47/15 31/48/15 32/49/15
f 22/42/16 26/50/16 37/51/16 35/52/16
f 40/22/17 23/21/17 27/43/17 42/53/17
f 22/42/18 39/41/18 41/54/18 26/50/18
f 31/48/19 30/55/19 29/56/19 32/49/19
f 50/57/20 49/58/20 29/56/20 30/55/20
f 49/58/21 48/46/21 32/49/21 29/56/21
f 47/47/22 50/57/22 30/55/22 31/48/22
f 34/59/23 33/60/23 35/52/23 36/44/23
f 36/44/24 35/52/24 37/51/24 38/45/24
f 8/20/25 4/35/25 33/60/25 34/59/25
f 23/21/26 8/20/26 34/59/26 36/44/26
f 26/50/27 27/43/27 38/45/27 37/51/27
f 4/35/28 22/42/28 35/52/28 33/60/28
f 24/37/29 21/61/29 39/41/29 40/22/29
f 25/62/30 28/38/30 42/53/30 41/54/30
f 28/38/31 24/37/31 40/22/31 42/53/31
f 21/61/32 25/62/32 41/54/32 39/41/32
f 43/63/33 44/40/33 46/39/33 45/64/33
f 21/61/34 24/37/34 44/40/34 43/63/34
f 25/62/35 21/61/35 43/63/35 45/64/35
f 28/38/36 25/62/36 45/64/36 46/39/36
f 27/43/37 26/50/37 50/57/37 47/47/37
f 41/54/13 42/53/13 48/46/13 49/58/13
f 26/50/38 41/54/38 49/58/38 50/57/38
f 42/53/39 27/43/39 47/47/39 48/46/39
f 10/65/40 64/66/40 66/67/40 9/68/40
f 64/66/41 63/33/41 65/1/41 66/67/41
f 1/69/40 51/70/40 64/66/40 10/65/40
f 51/70/41 52/30/41 63/33/41 64/66/41
f 14/27/42 60/71/42 62/72/42 13/14/42
f 60/71/43 59/29/43 61/7/43 62/72/43
f 7/26/42 56/73/42 60/71/42 14/27/42
f 56/73/43 55/6/43 59/29/43 60/71/43
f 5/15/44 58/74/44 51/75/44 1/76/44
f 58/74/13 57/10/13 52/12/13 51/75/13
f 13/14/42 62/72/42 58/74/42 5/15/42
f 62/72/43 61/7/43 57/10/43 58/74/43
f 3/77/45 54/78/45 56/73/45 7/26/45
f 54/78/37 53/4/37 55/6/37 56/73/37
f 9/68/40 66/67/40 54/78/40 3/77/40
f 66/67/41 65/1/41 53/4/41 54/78/41
