# Blender v2.91.2 OBJ File: 'wallet1.blend'
# www.blender.org
mtllib wallet1.mtl
o Cube_Cube.001
v -2.464198 -0.376088 1.835805
v -2.056576 0.580917 1.074530
v -2.464198 -0.376088 -1.850791
v -2.464198 0.376088 -1.850791
v 2.203940 -0.376088 1.835805
v 2.203940 0.376088 1.835805
v 2.203940 -0.376088 -1.850791
v 2.203940 0.376088 -1.850791
v -2.407727 -0.580917 -1.786516
v -2.407727 -0.580917 1.786516
v -2.464198 0.376088 1.835805
v -2.056576 0.580917 -1.074530
v 2.407727 -0.580917 -1.786516
v 0.839758 0.580917 -1.074530
v 0.839758 0.580917 1.074530
v 2.407727 -0.580917 1.786516
v -2.407726 -0.349852 1.835805
v -2.407726 0.349852 1.835805
v -2.407726 0.349852 -1.850790
v -2.407726 -0.349852 -1.850790
v 2.497852 0.540391 -1.786516
v 2.497852 -0.540391 -1.786516
v 2.497852 0.540391 1.786516
v 2.497852 -0.540391 1.786516
v 2.294065 0.349852 -1.850790
v 2.294065 -0.349852 -1.850790
v 2.294065 0.349852 1.835805
v 2.294065 -0.349852 1.835805
v 2.610842 0.180130 -1.786516
v 2.610842 -0.180130 -1.786516
v 2.610842 0.180130 1.786516
v 2.610842 -0.180130 1.786516
v 2.294065 0.116617 -1.850790
v 2.294065 -0.116617 -1.850790
v 2.294065 0.116617 1.835805
v 2.294065 -0.116617 1.835805
v -2.464198 -0.468614 1.813540
v -2.464198 -0.468614 -1.821756
v -2.464198 0.468614 -1.821756
v -2.464198 0.468614 1.813540
v 2.295995 -0.468614 -1.821756
v 2.295995 0.468614 -1.821756
v 2.295995 0.468614 1.813540
v 2.295995 -0.468614 1.813540
v 2.386121 0.435923 1.813540
v 2.386121 -0.435923 1.813540
v 2.386121 -0.435923 -1.821756
v 2.386121 0.435923 -1.821756
v 2.437161 -0.145308 -1.821756
v 2.437161 0.145308 -1.821756
v 2.437161 0.145308 1.813540
v 2.437161 -0.145308 1.813540
v -2.407727 0.580917 1.786516
v -2.407727 0.580917 -1.786516
v 2.407727 0.580917 -1.786516
v 2.407727 0.580917 1.786516
v -2.080326 0.523577 1.076587
v -2.080326 0.523577 -1.072472
v 0.816008 0.523577 -1.072472
v 0.816008 0.523577 1.076587
vt 0.526975 0.000000
vt 0.580925 0.000000
vt 0.580925 0.250000
vt 0.526975 0.250000
vt 0.580926 0.455926
vt 0.526975 0.455926
vt 0.541667 0.500000
vt 0.625000 0.500000
vt 0.625000 0.750000
vt 0.541667 0.750000
vt 0.526975 0.794075
vt 0.580926 0.794075
vt 0.580925 1.000000
vt 0.526975 1.000000
vt 0.125000 0.500000
vt 0.375000 0.500000
vt 0.375000 0.750000
vt 0.125000 0.750000
vt 0.803122 0.678122
vt 0.696878 0.678122
vt 0.696878 0.678122
vt 0.803122 0.678122
vt 0.399165 0.000000
vt 0.399165 0.250000
vt 0.375000 0.250000
vt 0.375000 0.000000
vt 0.600835 0.250000
vt 0.600835 0.000000
vt 0.625000 0.000000
vt 0.625000 0.250000
vt 0.399165 0.475835
vt 0.600835 0.475835
vt 0.533612 0.475835
vt 0.466388 0.774165
vt 0.399165 0.774165
vt 0.458333 0.750000
vt 0.399165 1.000000
vt 0.375000 1.000000
vt 0.600835 1.000000
vt 0.600835 0.774165
vt 0.625000 1.000000
vt 0.533612 0.774165
vt 0.488796 0.774165
vt 0.486111 0.750000
vt 0.466388 0.475835
vt 0.458333 0.500000
vt 0.511204 0.475835
vt 0.513889 0.500000
vt 0.419075 0.794075
vt 0.473025 0.794075
vt 0.473025 1.000000
vt 0.419075 1.000000
vt 0.488796 0.475835
vt 0.486111 0.500000
vt 0.513889 0.750000
vt 0.419075 0.250000
vt 0.473025 0.250000
vt 0.473025 0.455926
vt 0.419075 0.455926
vt 0.419075 0.000000
vt 0.473025 0.000000
vt 0.511204 0.774165
vt 0.508992 0.794075
vt 0.491008 0.794075
vt 0.491008 0.455926
vt 0.508992 0.455926
vt 0.000000 0.000000
vt 0.000000 0.000000
vt 0.000000 0.000000
vt 0.000000 0.000000
vt 0.803122 0.571878
vt 0.875000 0.500000
vt 0.875000 0.750000
vt 0.696878 0.571878
vt 0.696878 0.571878
vt 0.803122 0.571878
vn -0.4213 -0.9069 0.0000
vn 0.0000 -0.0000 -1.0000
vn 0.4101 0.9120 0.0000
vn 0.0000 -0.0000 1.0000
vn 0.0000 -1.0000 0.0000
vn 0.0000 -0.0359 -0.9994
vn -0.8934 -0.4493 0.0000
vn -0.8934 0.4493 0.0000
vn 0.0000 -0.2994 -0.9541
vn 0.0000 0.2994 -0.9541
vn 0.0904 0.2225 -0.9707
vn 0.0701 -0.1727 0.9825
vn 0.0000 -0.2340 0.9722
vn 0.0000 0.2340 0.9722
vn 0.0701 0.1727 0.9825
vn 0.1661 -0.0419 0.9852
vn 0.0904 -0.2225 -0.9707
vn 0.2145 0.0540 -0.9752
vn 0.2145 -0.0540 -0.9752
vn 0.4101 -0.9120 0.0000
vn 0.9542 0.2993 0.0000
vn 1.0000 0.0000 0.0000
vn -0.4213 0.9069 0.0000
vn 0.9542 -0.2993 0.0000
vn 0.1988 0.0000 -0.9800
vn 0.1661 0.0419 0.9852
vn 0.1537 0.0000 0.9881
vn 0.1779 0.0173 0.9839
vn 0.2294 -0.0223 -0.9731
vn 0.2294 0.0223 -0.9731
vn 0.0770 -0.2356 -0.9688
vn 0.1779 -0.0173 0.9839
vn 0.0598 0.1830 0.9813
vn 0.0598 -0.1830 0.9813
vn 0.0770 0.2356 -0.9688
vn -1.0000 0.0000 0.0000
vn 0.0000 1.0000 0.0000
vn -0.4723 0.8815 0.0000
vn -0.4723 -0.8815 0.0000
vn 0.0000 0.0359 0.9994
vn -0.9239 0.3827 0.0000
vn 0.9239 -0.3827 0.0000
usemtl None
s off
f 18/1/1 11/2/1 4/3/1 19/4/1
f 19/4/2 4/3/2 8/5/2 25/6/2
f 21/7/3 55/8/3 56/9/3 23/10/3
f 27/11/4 6/12/4 11/13/4 18/14/4
f 9/15/5 13/16/5 16/17/5 10/18/5
f 2/19/6 15/20/6 60/21/6 57/22/6
f 37/23/7 38/24/7 9/25/7 10/26/7
f 39/27/8 40/28/8 53/29/8 54/30/8
f 38/24/9 41/31/9 13/16/9 9/25/9
f 42/32/10 39/27/10 54/30/10 55/8/10
f 48/33/11 42/32/11 55/8/11 21/7/11
f 46/34/12 44/35/12 16/17/12 24/36/12
f 44/35/13 37/37/13 10/38/13 16/17/13
f 40/39/14 43/40/14 56/9/14 53/41/14
f 43/40/15 45/42/15 23/10/15 56/9/15
f 52/43/16 46/34/16 24/36/16 32/44/16
f 41/31/17 47/45/17 22/46/17 13/16/17
f 50/47/18 48/33/18 21/7/18 29/48/18
f 5/49/4 28/50/4 17/51/4 1/52/4
f 47/45/19 49/53/19 30/54/19 22/46/19
f 13/16/20 22/46/20 24/36/20 16/17/20
f 29/48/21 21/7/21 23/10/21 31/55/21
f 3/56/2 20/57/2 26/58/2 7/59/2
f 30/54/22 29/48/22 31/55/22 32/44/22
f 1/60/23 17/61/23 20/57/23 3/56/23
f 22/46/24 30/54/24 32/44/24 24/36/24
f 49/53/25 50/47/25 29/48/25 30/54/25
f 45/42/26 51/62/26 31/55/26 23/10/26
f 51/62/27 52/43/27 32/44/27 31/55/27
f 35/63/27 36/64/27 52/43/27 51/62/27
f 27/11/28 35/63/28 51/62/28 45/42/28
f 34/65/25 33/66/25 50/47/25 49/53/25
f 26/58/29 34/65/29 49/53/29 47/45/29
f 33/66/30 25/6/30 48/33/30 50/47/30
f 7/59/31 26/58/31 47/45/31 41/31/31
f 36/64/32 28/50/32 46/34/32 52/43/32
f 6/12/33 27/11/33 45/42/33 43/40/33
f 11/13/14 6/12/14 43/40/14 40/39/14
f 5/49/13 1/52/13 37/37/13 44/35/13
f 28/50/34 5/49/34 44/35/34 46/34/34
f 25/6/35 8/5/35 42/32/35 48/33/35
f 8/5/10 4/3/10 39/27/10 42/32/10
f 3/56/9 7/59/9 41/31/9 38/24/9
f 4/3/36 11/2/36 40/28/36 39/27/36
f 1/60/36 3/56/36 38/24/36 37/23/36
f 28/50/37 26/58/37 20/57/37 17/61/37
f 26/58/38 28/50/38 32/44/38 30/54/38
f 27/11/5 18/1/5 19/4/5 25/6/5
f 25/67/39 29/68/39 31/69/39 27/70/39
f 2/19/37 12/71/37 54/72/37 53/73/37
f 12/71/37 14/74/37 55/8/37 54/72/37
f 14/74/37 15/20/37 56/9/37 55/8/37
f 15/20/37 2/19/37 53/73/37 56/9/37
f 59/75/37 58/76/37 57/22/37 60/21/37
f 14/74/40 12/71/40 58/76/40 59/75/40
f 15/20/41 14/74/41 59/75/41 60/21/41
f 12/71/42 2/19/42 57/22/42 58/76/42
o Cube.002
v -2.350713 -0.073114 1.487835
v -2.350713 0.028819 1.487835
v -2.350713 -0.073114 -1.581906
v -2.350713 0.028819 -1.581906
v 2.495561 -0.073114 1.487835
v 2.495561 0.028819 1.487835
v 2.495561 -0.073114 -1.581906
v 2.495561 0.028819 -1.581906
v -2.377146 -0.039137 1.517254
v -2.377146 -0.005159 1.517254
v -2.377146 -0.005159 -1.602822
v -2.377146 -0.039137 -1.602822
v 2.495561 -0.005159 -1.602822
v 2.495561 -0.039137 -1.602822
v 2.495561 -0.005159 1.517254
v 2.495561 -0.039137 1.517254
vt 0.541667 0.000000
vt 0.625000 0.000000
vt 0.625000 0.250000
vt 0.541667 0.250000
vt 0.625000 0.500000
vt 0.541667 0.500000
vt 0.625000 0.750000
vt 0.541667 0.750000
vt 0.625000 1.000000
vt 0.541667 1.000000
vt 0.125000 0.500000
vt 0.375000 0.500000
vt 0.375000 0.750000
vt 0.125000 0.750000
vt 0.875000 0.500000
vt 0.875000 0.750000
vt 0.458333 0.750000
vt 0.458333 1.000000
vt 0.375000 1.000000
vt 0.458333 0.500000
vt 0.375000 0.250000
vt 0.458333 0.250000
vt 0.375000 0.000000
vt 0.458333 0.000000
vn -0.7893 0.6140 0.0000
vn 0.0000 0.5242 -0.8516
vn 1.0000 0.0000 0.0000
vn 0.0000 0.6546 0.7560
vn 0.0000 -1.0000 0.0000
vn 0.0000 1.0000 0.0000
vn 0.0000 -0.6546 0.7560
vn 0.0000 0.0000 1.0000
vn 0.0000 -0.5242 -0.8516
vn 0.0000 0.0000 -1.0000
vn -0.7893 -0.6140 0.0000
vn -1.0000 0.0000 0.0000
usemtl None
s off
f 70/77/43 62/78/43 64/79/43 71/80/43
f 71/80/44 64/79/44 68/81/44 73/82/44
f 73/82/45 68/81/45 66/83/45 75/84/45
f 75/84/46 66/83/46 62/85/46 70/86/46
f 63/87/47 67/88/47 65/89/47 61/90/47
f 68/81/48 64/91/48 62/92/48 66/83/48
f 65/89/49 76/93/49 69/94/49 61/95/49
f 76/93/50 75/84/50 70/86/50 69/94/50
f 67/88/45 74/96/45 76/93/45 65/89/45
f 74/96/45 73/82/45 75/84/45 76/93/45
f 63/97/51 72/98/51 74/96/51 67/88/51
f 72/98/52 71/80/52 73/82/52 74/96/52
f 61/99/53 69/100/53 72/98/53 63/97/53
f 69/100/54 70/77/54 71/80/54 72/98/54
o Cube.001_Cube.004
v -2.384339 0.249409 1.583203
v -2.384339 0.357676 1.583203
v -2.384339 0.249409 -1.677273
v -2.384339 0.357676 -1.677273
v 2.423350 0.249409 1.583203
v 2.423350 0.357676 1.583203
v 2.423350 0.249409 -1.677273
v 2.423350 0.357676 -1.677273
v -2.410562 0.285498 1.614449
v -2.410562 0.321587 1.614449
v -2.410562 0.321587 -1.699489
v -2.410562 0.285498 -1.699489
v 2.423350 0.321587 -1.699489
v 2.423350 0.285498 -1.699489
v 2.423350 0.321587 1.614449
v 2.423350 0.285498 1.614449
vt 0.541667 0.000000
vt 0.625000 0.000000
vt 0.625000 0.250000
vt 0.541667 0.250000
vt 0.625000 0.500000
vt 0.541667 0.500000
vt 0.625000 0.750000
vt 0.541667 0.750000
vt 0.625000 1.000000
vt 0.541667 1.000000
vt 0.125000 0.500000
vt 0.375000 0.500000
vt 0.375000 0.750000
vt 0.125000 0.750000
vt 0.875000 0.500000
vt 0.875000 0.750000
vt 0.458333 0.750000
vt 0.458333 1.000000
vt 0.375000 1.000000
vt 0.458333 0.500000
vt 0.375000 0.250000
vt 0.458333 0.250000
vt 0.375000 0.000000
vt 0.458333 0.000000
vn -0.8090 0.5878 0.0000
vn 0.0000 0.5242 -0.8516
vn 1.0000 0.0000 0.0000
vn 0.0000 0.6546 0.7560
vn 0.0000 -1.0000 0.0000
vn 0.0000 1.0000 0.0000
vn 0.0000 -0.6546 0.7560
vn 0.0000 0.0000 1.0000
vn 0.0000 -0.5242 -0.8516
vn 0.0000 0.0000 -1.0000
vn -0.8090 -0.5878 0.0000
vn -1.0000 0.0000 0.0000
usemtl None
s off
f 86/101/55 78/102/55 80/103/55 87/104/55
f 87/104/56 80/103/56 84/105/56 89/106/56
f 89/106/57 84/105/57 82/107/57 91/108/57
f 91/108/58 82/107/58 78/109/58 86/110/58
f 79/111/59 83/112/59 81/113/59 77/114/59
f 84/105/60 80/115/60 78/116/60 82/107/60
f 81/113/61 92/117/61 85/118/61 77/119/61
f 92/117/62 91/108/62 86/110/62 85/118/62
f 83/112/57 90/120/57 92/117/57 81/113/57
f 90/120/57 89/106/57 91/108/57 92/117/57
f 79/121/63 88/122/63 90/120/63 83/112/63
f 88/122/64 87/104/64 89/106/64 90/120/64
f 77/123/65 85/124/65 88/122/65 79/121/65
f 85/124/66 86/101/66 87/104/66 88/122/66
o Cube.003_Cube.005
v -2.251337 0.093115 1.583203
v -2.251337 0.201382 1.583203
v -2.251337 0.093115 -1.677273
v -2.251337 0.201382 -1.677273
v 2.429440 0.093115 1.583203
v 2.429440 0.201382 1.583203
v 2.429440 0.093115 -1.677273
v 2.429440 0.201382 -1.677273
v -2.276868 0.129204 1.614449
v -2.276868 0.165293 1.614449
v -2.276868 0.165293 -1.699489
v -2.276868 0.129204 -1.699489
v 2.429440 0.165293 -1.699489
v 2.429440 0.129204 -1.699489
v 2.429440 0.165293 1.614449
v 2.429440 0.129204 1.614449
vt 0.541667 0.000000
vt 0.625000 0.000000
vt 0.625000 0.250000
vt 0.541667 0.250000
vt 0.625000 0.500000
vt 0.541667 0.500000
vt 0.625000 0.750000
vt 0.541667 0.750000
vt 0.625000 1.000000
vt 0.541667 1.000000
vt 0.125000 0.500000
vt 0.375000 0.500000
vt 0.375000 0.750000
vt 0.125000 0.750000
vt 0.875000 0.500000
vt 0.875000 0.750000
vt 0.458333 0.750000
vt 0.458333 1.000000
vt 0.375000 1.000000
vt 0.458333 0.500000
vt 0.375000 0.250000
vt 0.458333 0.250000
vt 0.375000 0.000000
vt 0.458333 0.000000
vn -0.8164 0.5775 0.0000
vn 0.0000 0.5242 -0.8516
vn 1.0000 0.0000 0.0000
vn 0.0000 0.6546 0.7560
vn 0.0000 -1.0000 0.0000
vn 0.0000 1.0000 0.0000
vn 0.0000 -0.6546 0.7560
vn 0.0000 0.0000 1.0000
vn 0.0000 -0.5242 -0.8516
vn 0.0000 0.0000 -1.0000
vn -0.8164 -0.5775 0.0000
vn -1.0000 0.0000 0.0000
usemtl None
s off
f 102/125/67 94/126/67 96/127/67 103/128/67
f 103/128/68 96/127/68 100/129/68 105/130/68
f 105/130/69 100/129/69 98/131/69 107/132/69
f 107/132/70 98/131/70 94/133/70 102/134/70
f 95/135/71 99/136/71 97/137/71 93/138/71
f 100/129/72 96/139/72 94/140/72 98/131/72
f 97/137/73 108/141/73 101/142/73 93/143/73
f 108/141/74 107/132/74 102/134/74 101/142/74
f 99/136/69 106/144/69 108/141/69 97/137/69
f 106/144/69 105/130/69 107/132/69 108/141/69
f 95/145/75 104/146/75 106/144/75 99/136/75
f 104/146/76 103/128/76 105/130/76 106/144/76
f 93/147/77 101/148/77 104/146/77 95/145/77
f 101/148/78 102/125/78 103/128/78 104/146/78
o Cube.004_Cube.006
v -2.356025 -0.340818 1.550649
v -2.356025 -0.259060 1.550649
v -2.356025 -0.340818 -1.644719
v -2.356025 -0.259060 -1.644719
v 2.446683 -0.340818 1.550649
v 2.446683 -0.259060 1.550649
v 2.446683 -0.340818 -1.644719
v 2.446683 -0.259060 -1.644719
v -2.382221 -0.313565 1.581271
v -2.382221 -0.286313 1.581271
v -2.382221 -0.286313 -1.666491
v -2.382221 -0.313565 -1.666491
v 2.446683 -0.286313 -1.666491
v 2.446683 -0.313565 -1.666491
v 2.446683 -0.286313 1.581271
v 2.446683 -0.313565 1.581271
vt 0.541667 0.000000
vt 0.625000 0.000000
vt 0.625000 0.250000
vt 0.541667 0.250000
vt 0.625000 0.500000
vt 0.541667 0.500000
vt 0.625000 0.750000
vt 0.541667 0.750000
vt 0.625000 1.000000
vt 0.541667 1.000000
vt 0.125000 0.500000
vt 0.375000 0.500000
vt 0.375000 0.750000
vt 0.125000 0.750000
vt 0.875000 0.500000
vt 0.875000 0.750000
vt 0.458333 0.750000
vt 0.458333 1.000000
vt 0.375000 1.000000
vt 0.458333 0.500000
vt 0.375000 0.250000
vt 0.458333 0.250000
vt 0.375000 0.000000
vt 0.458333 0.000000
vn -0.7209 0.6930 0.0000
vn 0.0000 0.6242 -0.7813
vn 1.0000 -0.0000 0.0000
vn 0.0000 0.7470 0.6648
vn 0.0000 -1.0000 0.0000
vn 0.0000 1.0000 0.0000
vn 0.0000 -0.7470 0.6648
vn 0.0000 0.0000 1.0000
vn 0.0000 -0.6242 -0.7813
vn 0.0000 0.0000 -1.0000
vn -0.7209 -0.6930 0.0000
vn -1.0000 0.0000 0.0000
usemtl None
s off
f 118/149/79 110/150/79 112/151/79 119/152/79
f 119/152/80 112/151/80 116/153/80 121/154/80
f 121/154/81 116/153/81 114/155/81 123/156/81
f 123/156/82 114/155/82 110/157/82 118/158/82
f 111/159/83 115/160/83 113/161/83 109/162/83
f 116/153/84 112/163/84 110/164/84 114/155/84
f 113/161/85 124/165/85 117/166/85 109/167/85
f 124/165/86 123/156/86 118/158/86 117/166/86
f 115/160/81 122/168/81 124/165/81 113/161/81
f 122/168/81 121/154/81 123/156/81 124/165/81
f 111/169/87 120/170/87 122/168/87 115/160/87
f 120/170/88 119/152/88 121/154/88 122/168/88
f 109/171/89 117/172/89 120/170/89 111/169/89
f 117/172/90 118/149/90 119/152/90 120/170/90
o Cube.005_Cube.007
v -2.262607 -0.198361 1.565052
v -2.262607 -0.115866 1.565052
v -2.262607 -0.198361 -1.659122
v -2.262607 -0.115866 -1.659122
v 2.389653 -0.198361 1.565052
v 2.389653 -0.115866 1.565052
v 2.389653 -0.198361 -1.659122
v 2.389653 -0.115866 -1.659122
v -2.287983 -0.170863 1.595950
v -2.287983 -0.143365 1.595950
v -2.287983 -0.143365 -1.681090
v -2.287983 -0.170863 -1.681090
v 2.389653 -0.143365 -1.681090
v 2.389653 -0.170863 -1.681090
v 2.389653 -0.143365 1.595950
v 2.389653 -0.170863 1.595950
vt 0.541667 0.000000
vt 0.625000 0.000000
vt 0.625000 0.250000
vt 0.541667 0.250000
vt 0.625000 0.500000
vt 0.541667 0.500000
vt 0.625000 0.750000
vt 0.541667 0.750000
vt 0.625000 1.000000
vt 0.541667 1.000000
vt 0.125000 0.500000
vt 0.375000 0.500000
vt 0.375000 0.750000
vt 0.125000 0.750000
vt 0.875000 0.500000
vt 0.875000 0.750000
vt 0.458333 0.750000
vt 0.458333 1.000000
vt 0.375000 1.000000
vt 0.458333 0.500000
vt 0.375000 0.250000
vt 0.458333 0.250000
vt 0.375000 0.000000
vt 0.458333 0.000000
vn -0.7349 0.6782 0.0000
vn 0.0000 0.6242 -0.7813
vn 1.0000 -0.0000 0.0000
vn 0.0000 0.7470 0.6648
vn 0.0000 -1.0000 0.0000
vn 0.0000 1.0000 0.0000
vn 0.0000 -0.7470 0.6648
vn 0.0000 0.0000 1.0000
vn 0.0000 -0.6242 -0.7813
vn 0.0000 0.0000 -1.0000
vn -0.7349 -0.6782 0.0000
vn -1.0000 0.0000 0.0000
usemtl None
s off
f 134/173/91 126/174/91 128/175/91 135/176/91
f 135/176/92 128/175/92 132/177/92 137/178/92
f 137/178/93 132/177/93 130/179/93 139/180/93
f 139/180/94 130/179/94 126/181/94 134/182/94
f 127/183/95 131/184/95 129/185/95 125/186/95
f 132/177/96 128/187/96 126/188/96 130/179/96
f 129/185/97 140/189/97 133/190/97 125/191/97
f 140/189/98 139/180/98 134/182/98 133/190/98
f 131/184/93 138/192/93 140/189/93 129/185/93
f 138/192/93 137/178/93 139/180/93 140/189/93
f 127/193/99 136/194/99 138/192/99 131/184/99
f 136/194/100 135/176/100 137/178/100 138/192/100
f 125/195/101 133/196/101 136/194/101 127/193/101
f 133/196/102 134/173/102 135/176/102 136/194/102
